<?xml version="1.0" encoding="UTF-8"?>
<!-- Generator: Adobe Illustrator 26.1.0, SVG Export Plug-In . SVG Version: 6.00 Build 0)  -->
<svg xmlns="http://www.w3.org/2000/svg" xmlns:xlink="http://www.w3.org/1999/xlink" version="1.1" id="Vorschlag1" x="0px" y="0px" viewBox="0 0 595.3 144.6" style="enable-background:new 0 0 595.3 144.6;" xml:space="preserve">
<style type="text/css">
	.st0{fill:#007967;}
	.st1{fill:#303030;}
</style>
<g id="Farbig">
	<g>
		<path class="st0" d="M312.3,3.8h30.9v61h0.6c3.1-5.3,6.3-10.2,9.4-15.1l31.3-45.8h38.3l-45.6,58.7l48.1,79.2h-36.4l-33.8-59.5    l-11.9,14.5v45h-30.9V3.8z"></path>
		<path class="st0" d="M469.2,3.8v137.9h-31.3V3.8H469.2z"></path>
		<path class="st1" d="M496.3,5.6c9.6-1.6,23.1-2.9,42.1-2.9c19.2,0,32.9,3.7,42.1,11c8.8,7,14.7,18.4,14.7,31.9s-4.5,25-12.7,32.7    C572,88.5,556.2,93,537.8,93c-4.1,0-7.8-0.2-10.6-0.6v49.3h-30.9V5.6z M527.1,68.2c2.7,0.6,5.9,0.8,10.4,0.8    c16.6,0,26.8-8.4,26.8-22.5c0-12.7-8.8-20.3-24.3-20.3c-6.3,0-10.6,0.6-12.9,1.2V68.2z"></path>
	</g>
	<path class="st1" d="M286.3,66.5c-9.2-16-26.8-27.2-46.8-27.2c-29.6,0-53.5,23.5-53.5,52.5s24,52.5,53.5,52.5   c22.9,0,42.4-14.1,50.1-33.9l-21.9-13.5c-2.5,12.9-14,22.7-27.9,22.7c-15.7,0-28.4-12.5-28.4-27.9s12.7-27.9,28.4-27.9   c10.9,0,20.4,6.1,25.2,14.9l-9.1,5.2l40.1,20.9l0.1-44.1L286.3,66.5z"></path>
	<g>
		<g>
			<path class="st1" d="M0,5.6C9.6,4,23.1,2.8,42.1,2.8c19.2,0,32.9,3.7,42.1,11c8.8,7,14.7,18.4,14.7,31.9s-4.5,25-12.7,32.7     C75.7,88.5,59.9,93,41.5,93c-4.1,0-7.8-0.2-10.6-0.6v49.3H0V5.6z M30.9,68.2c2.7,0.6,5.9,0.8,10.4,0.8c16.6,0,26.8-8.4,26.8-22.5     c0-12.7-8.8-20.3-24.3-20.3c-6.3,0-10.6,0.6-12.9,1.2V68.2z"></path>
			<path class="st1" d="M116,74.6c0-14.7-0.4-24.3-0.8-32.9H142l1,18.4h0.8c5.1-14.5,17.4-20.7,27-20.7c2.9,0,4.3,0,6.5,0.4V69     c-2.3-0.4-4.9-0.8-8.4-0.8c-11.5,0-19.2,6.1-21.3,15.8c-0.4,2-0.6,4.5-0.6,7v50.7H116V74.6z"></path>
		</g>
	</g>
</g>
</svg>
